<svg viewBox="0 0 1200 470" xmlns="http://www.w3.org/2000/svg" font-family="-apple-system, BlinkMacSystemFont, 'Segoe UI', Helvetica, Arial, sans-serif">
  <rect width="1200" height="470" rx="20" fill="#191920"/>
  <rect x="0.5" y="0.5" width="1199" height="469" rx="19.5" fill="none" stroke="#2e2e38" stroke-width="1"/>

  <text x="56" y="64" fill="#ededf2" font-size="30" font-weight="600" letter-spacing="-0.4">Inline link suggestions</text>
  <text x="56" y="100" fill="#a7a7b4" font-size="18">A concept that already has a note glows with a slim blue underline. Click once to turn the</text>
  <text x="56" y="126" fill="#a7a7b4" font-size="18">mention into a <tspan fill="#cfcfe0" font-weight="500">[[link]]</tspan> — and it's context-aware, so a common word only glows where it fits.</text>

  <g transform="translate(56,168)">
    <rect x="0" y="0" width="486" height="244" rx="14" fill="#202027" stroke="#33333f" stroke-width="1"/>
    <text x="22" y="34" fill="#7d7d88" font-size="13" font-weight="500">EDITING · Training notes</text>
    <line x1="22" y1="48" x2="464" y2="48" stroke="#2c2c36" stroke-width="1"/>
    <text x="22" y="92" fill="#d4d4dc" font-size="18">The optimizer updates the weights</text>
    <text x="22" y="124" fill="#d4d4dc" font-size="18">via <tspan fill="#d4d4dc" text-decoration="underline" style="text-decoration-color:#5b9bff">gradient descent</tspan> after each batch,</text>
    <text x="22" y="156" fill="#d4d4dc" font-size="18">nudging the loss steadily downhill.</text>

    <g transform="translate(150,128)">
      <path d="M0 0 L0 22 L6 16 L11 27 L15 25 L10 15 L18 15 Z" fill="#f4f4f6" stroke="#1a1a1f" stroke-width="1"/>
    </g>
    <g transform="translate(168,150)">
      <rect x="0" y="0" width="92" height="26" rx="13" fill="#1f3350"/>
      <text x="46" y="18" fill="#9cc4ff" font-size="13" text-anchor="middle">1 click</text>
    </g>
  </g>

  <g transform="translate(566,290) ">
    <circle cx="0" cy="0" r="26" fill="#221f33" stroke="#4a3f78" stroke-width="1"/>
    <path d="M-9 0 H7 M1 -7 L9 0 L1 7" fill="none" stroke="#a78bfa" stroke-width="2.4" stroke-linecap="round" stroke-linejoin="round"/>
  </g>

  <g transform="translate(658,168)">
    <rect x="0" y="0" width="486" height="244" rx="14" fill="#202027" stroke="#33333f" stroke-width="1"/>
    <text x="22" y="34" fill="#7d7d88" font-size="13" font-weight="500">LINKED · Training notes</text>
    <line x1="22" y1="48" x2="464" y2="48" stroke="#2c2c36" stroke-width="1"/>
    <text x="22" y="92" fill="#d4d4dc" font-size="18">The optimizer updates the weights</text>
    <text x="22" y="124" fill="#d4d4dc" font-size="18">via <tspan fill="#a78bfa" font-weight="500">[[gradient descent]]</tspan> after each</text>
    <text x="22" y="156" fill="#d4d4dc" font-size="18">batch, nudging the loss downhill.</text>

    <g transform="translate(22,186)">
      <rect x="0" y="0" width="190" height="30" rx="8" fill="#1c2a22" stroke="#2f5a3f" stroke-width="1"/>
      <path d="M12 15 l5 5 l9 -11" fill="none" stroke="#4ade80" stroke-width="2.2" stroke-linecap="round" stroke-linejoin="round"/>
      <text x="36" y="20" fill="#bfe6cd" font-size="13">Linked to your note</text>
    </g>
  </g>
</svg>
